<svg width="84" height="84" viewBox="0 0 84 84" fill="none" xmlns="http://www.w3.org/2000/svg">
<path fill-rule="evenodd" clip-rule="evenodd" d="M42 14H7V27H54H61.5V27.0005C62.6933 27.0005 63.8378 27.4746 64.6816 28.3184C65.5254 29.1622 65.9995 30.3067 65.9995 31.5C65.9995 32.6933 65.5254 33.8378 64.6816 34.6816C63.8378 35.5254 62.6933 35.9995 61.5 35.9995V36L42 36V38V49V71H57V49H61.5H62V48.9929C66.46 48.8655 70.7105 47.0382 73.8744 43.8744C77.1562 40.5925 79 36.1413 79 31.5C79 26.8587 77.1563 22.4075 73.8744 19.1256C70.7105 15.9618 66.46 14.1345 62 14.0071V14L61.5097 14C61.5065 14 61.5032 14 61.5 14H54H42ZM31 71L31 36H16L16 71H31Z" fill="#080808"/>
</svg>
